<?xml version="1.0" standalone="no"?><!DOCTYPE svg PUBLIC "-//W3C//DTD SVG 1.1//EN" "http://www.w3.org/Graphics/SVG/1.1/DTD/svg11.dtd"><svg t="1664024904600" class="icon" viewBox="0 0 1024 1024" version="1.1" xmlns="http://www.w3.org/2000/svg" p-id="2469" xmlns:xlink="http://www.w3.org/1999/xlink" width="200" height="200"><path d="M236.4 221h498v48h-498z" fill="#333333" p-id="2470"></path><path d="M362.4 362.4h273.1V698H362.4z" fill="#FFFFFF" p-id="2471"></path><path d="M419.4 476h48v222h-48z" fill="#3cad6e" p-id="2472" data-spm-anchor-id="a313x.7781069.0.i1" class="selected"></path><path d="M653.4 734v66h-336v-66h336m48-48h-432v162h432V686z" fill="#333333" p-id="2473"></path><path d="M788.1 512.2H587.6v48h200.5c3 0 5.4 2.4 5.4 5.4v21.5l0.1 56.8h47.9v-78.4c0-29.4-23.9-53.3-53.4-53.3zM925.6 506.3h47.9V644h-47.9z" fill="#3cad6e" p-id="2474" data-spm-anchor-id="a313x.7781069.0.i2" class="selected"></path><path d="M794.5 596h165.9v48H794.5zM829 380H587.6v180.2h192.6v-48H635.6V428H829c47.9 0 87.7 34.7 95.9 80.2l0.6 3.9 48.3 0.1C967.2 438.1 904.9 380 829 380z" fill="#3cad6e" p-id="2475" data-spm-anchor-id="a313x.7781069.0.i3" class="selected"></path><path d="M587.4 653.6h48V332h-300l-0.4 372.2h46.1V380h206.5z" fill="#333333" p-id="2476"></path><path d="M422.4 197h126v159h-126z" fill="#FFFFFF" p-id="2477"></path><path d="M524.4 221v111h-78V221h78m48-48h-174v207h174V173z" fill="#333333" p-id="2478"></path></svg>